<?xml version="1.0" encoding="utf-8"?>
<!-- Generator: Adobe Illustrator 21.0.2, SVG Export Plug-In . SVG Version: 6.00 Build 0)  -->
<svg version="1.1" id="Layer_1" xmlns="http://www.w3.org/2000/svg" xmlns:xlink="http://www.w3.org/1999/xlink" x="0px" y="0px"
	 viewBox="0 0 48 48" style="enable-background:new 0 0 48 48;" xml:space="preserve">
<style type="text/css">
	.st0{fill:#C9A057;}
</style>
<g>
	<g>
		<path class="st0" d="M3.9,15.9c13.4,0,26.5,0,40,0c1.4,0,1.4-2.1,0-2.1c-13.4,0-26.5,0-40,0C2.8,13.8,2.8,15.9,3.9,15.9L3.9,15.9z
			"/>
	</g>
</g>
<g>
	<g>
		<path class="st0" d="M3.9,25.2c13.4,0,26.5,0,40,0c1.4,0,1.4-2.1,0-2.1c-13.4,0-26.5,0-40,0C2.8,23.1,2.8,25.2,3.9,25.2L3.9,25.2z
			"/>
	</g>
</g>
<g>
	<g>
		<path class="st0" d="M3.9,34.2c13.4,0,26.5,0,40,0c1.4,0,1.4-2.1,0-2.1c-13.4,0-26.5,0-40,0C2.8,32.1,2.8,34.2,3.9,34.2L3.9,34.2z
			"/>
	</g>
</g>
</svg>
